<?xml version="1.0"?>
<svg version="1.1" xmlns="http://www.w3.org/2000/svg" width="143px" height="52px"><path fill="#" d="M6.48,16.076l-3.672,0l-0.912,0l-0.6,0l0,16.824l0.6,0l0.912,0l3.672,0q3.504,0,6-2.448q2.568-2.52,2.568-6.12q0-3.408-2.568-5.856q-2.52-2.4-6-2.4z M6.48,31.388l-3.672,0l0-13.752l3.672,0q3,0,5.04,1.968q2.016,1.968,2.016,4.728q0,3-2.016,5.016q-2.04,2.04-5.04,2.04z M20.03616,28.292q0-1.152,0.816-2.088q0.816-0.984,1.968-0.984l0.312,0l4.488,0l0-1.488l-4.488,0l-0.312,0q-1.224-0.24-2.004-1.056t-0.78-1.944q0-1.416,0.828-2.244t2.268-0.828l8.16,0l0-1.512l-8.16,0q-1.848,0-3.216,1.368q-1.368,1.32-1.368,3.216q0,1.2,0.456,2.184t1.344,1.416q-0.888,0.648-1.344,1.704t-0.456,2.256q0,1.872,1.368,3.192q1.392,1.392,3.216,1.392l8.16,0l0-1.584l-8.16,0q-1.44,0-2.268-0.816t-0.828-2.184z M34.36032,32.852l1.488,0l0-10.152q0-2.016,1.536-3.552t3.552-1.536q1.968,0,3.552,1.536q1.512,1.512,1.512,3.552l0,10.152l1.536,0l0-10.152q0-2.064,1.536-3.552q1.536-1.536,3.528-1.536q2.016,0,3.552,1.536t1.536,3.552l0,10.152l1.488,0l0-10.152q0-2.736-1.92-4.656t-4.656-1.92q-1.8,0-3.384,0.984q-1.608,1.008-2.304,2.568q-0.936-1.608-2.52-2.568q-1.656-0.984-3.456-0.984q-2.712,0-4.632,1.92q-1.944,1.944-1.944,4.656l0,10.152z M69.37248,16.1q-2.712,0-4.656,1.944q-1.968,1.968-1.968,4.68l0,3.624q0,2.664,1.968,4.632t4.656,1.968q2.712,0,4.68-1.968q1.944-1.944,1.944-4.632l0-3.624q0-2.736-1.944-4.68t-4.68-1.944z M74.50848,22.724l0,3.624q0,2.184-1.536,3.672q-1.512,1.44-3.6,1.44t-3.576-1.44q-1.536-1.488-1.536-3.672l0-3.624q0-2.016,1.536-3.6q1.536-1.536,3.576-1.536q2.016,0,3.6,1.536q1.536,1.584,1.536,3.6z M86.12064,16.004q-2.688,0-4.512,1.944q-1.8,1.92-1.8,4.68l0,10.272l1.512,0l0-7.536l9.648,0l0,7.536l1.512,0l0-10.272q0-2.76-1.8-4.68q-1.872-1.944-4.56-1.944z M90.96864,23.876l-9.648,0l0-1.248q0-2.064,1.392-3.576q1.416-1.536,3.408-1.536t3.456,1.536q1.392,1.512,1.392,3.576l0,1.248z M105.5568,16.1l-7.536,0l-1.488,0l0,16.872l1.488,0l0-8.448l7.536,0q1.824,0,3.024-1.2t1.2-3q0-1.632-1.2-2.904q-1.272-1.32-3.024-1.32z M105.5568,23.036l-7.536,0l0-5.448l7.536,0q1.104,0,1.944,0.792q0.792,0.84,0.792,1.944q0,1.128-0.792,1.92q-0.84,0.792-1.944,0.792z M121.77696,16.1l-7.536,0l-1.488,0l0,16.872l1.488,0l0-8.448l7.536,0q1.824,0,3.024-1.2t1.2-3q0-1.632-1.2-2.904q-1.272-1.32-3.024-1.32z M121.77696,23.036l-7.536,0l0-5.448l7.536,0q1.104,0,1.944,0.792q0.792,0.84,0.792,1.944q0,1.128-0.792,1.92q-0.84,0.792-1.944,0.792z"/><path fill="#" d=""/></svg>
